<svg xmlns="http://www.w3.org/2000/svg" width="24.833" height="8.67" viewBox="0 0 24.833 8.67">
  <g id="Group_142" data-name="Group 142" transform="translate(0.509 0.52)">
    <path id="Path_134" data-name="Path 134" d="M1022.531-344.193s-6.493,1.768-7.071,1.768h-5.979V-345.8" transform="translate(-998.338 350.075)" fill="none" stroke="#666" stroke-miterlimit="10" stroke-width="1"/>
    <path id="Path_135" data-name="Path 135" d="M890.749-390.808a.99.99,0,0,0,.739-1.35c-.43-1.369-10.543-3.246-10.543-3.246a1.329,1.329,0,0,0-.514,1.993Z" transform="translate(-880.185 395.404)" fill="none" stroke="#666" stroke-miterlimit="10" stroke-width="1"/>
    <path id="Path_136" data-name="Path 136" d="M990.227-368.32s.321,1.724-.514,1.979" transform="translate(-980.274 370.654)" fill="none" stroke="#666" stroke-miterlimit="10" stroke-width="1"/>
    <path id="Path_137" data-name="Path 137" d="M1015.448-356.845a19.728,19.728,0,0,1,1.832-2.764,8.009,8.009,0,0,1,2.925-1.864c.354-.032,2.314.836,3.086.836s4.4,2.25,4.4,2.25" transform="translate(-1003.791 364.398)" fill="none" stroke="#666" stroke-miterlimit="10" stroke-width="1"/>
    <line id="Line_99" data-name="Line 99" x2="0.193" y2="0.032" transform="translate(16.318 3.664)" fill="none" stroke="#666" stroke-miterlimit="10" stroke-width="1"/>
    <line id="Line_100" data-name="Line 100" x2="0.193" y2="0.032" transform="translate(17.314 4.339)" fill="none" stroke="#666" stroke-miterlimit="10" stroke-width="1"/>
    <line id="Line_101" data-name="Line 101" x2="0.193" y2="0.032" transform="translate(18.311 5.304)" fill="none" stroke="#666" stroke-miterlimit="10" stroke-width="1"/>
    <line id="Line_102" data-name="Line 102" x2="0.193" y2="0.032" transform="translate(20.143 5.432)" fill="none" stroke="#666" stroke-miterlimit="10" stroke-width="1"/>
    <line id="Line_103" data-name="Line 103" x2="0.193" y2="0.032" transform="translate(21.396 5.623)" fill="none" stroke="#666" stroke-miterlimit="10" stroke-width="1"/>
    <line id="Line_104" data-name="Line 104" x2="0.193" y2="0.032" transform="translate(16.607 4.436)" fill="none" stroke="#666" stroke-miterlimit="10" stroke-width="1"/>
    <line id="Line_105" data-name="Line 105" x2="0.193" y2="0.032" transform="translate(18.407 4.211)" fill="none" stroke="#666" stroke-miterlimit="10" stroke-width="1"/>
    <line id="Line_106" data-name="Line 106" x2="0.193" y2="0.032" transform="translate(19.629 4.886)" fill="none" stroke="#666" stroke-miterlimit="10" stroke-width="1"/>
  </g>
</svg>
