<svg xmlns="http://www.w3.org/2000/svg" width="23.593" height="27.383" viewBox="0 0 23.593 27.383">
  <g id="Group_253" data-name="Group 253" transform="translate(1.074 0.557)">
    <g id="Group_144" data-name="Group 144">
      <path id="Path_145" data-name="Path 145" d="M2261.353-522.921l19.957-11.292,1.444.613-19.782,11.467Z" transform="translate(-2261.353 534.213)" fill="none" stroke="#666" stroke-miterlimit="10" stroke-width="1"/>
      <path id="Path_146" data-name="Path 146" d="M2261.353-402.468v13.709l1.619.952v-13.87Z" transform="translate(-2261.353 413.759)" fill="none" stroke="#666" stroke-miterlimit="10" stroke-width="1"/>
      <path id="Path_147" data-name="Path 147" d="M2280.334-501.767l19.694-11.6v-13.7L2280.247-515.6Z" transform="translate(-2278.627 527.676)" fill="none" stroke="#666" stroke-miterlimit="10" stroke-width="1"/>
      <path id="Path_148" data-name="Path 148" d="M2324.206-415.584v7.418l4.493-2.823V-418.3Z" transform="translate(-2318.819 428.232)" fill="none" stroke="#666" stroke-miterlimit="10" stroke-width="1"/>
      <path id="Path_149" data-name="Path 149" d="M2327.149-407.064v5.164l-2.943,1.707" transform="translate(-2318.819 417.961)" fill="none" stroke="#666" stroke-miterlimit="10" stroke-width="1"/>
      <line id="Line_107" data-name="Line 107" x1="1.55" y1="1.182" transform="translate(8.33 16.062)" fill="none" stroke="#666" stroke-miterlimit="10" stroke-width="1"/>
      <path id="Path_150" data-name="Path 150" d="M2413.353-468.691v7.418l4.7-2.823V-471.4Z" transform="translate(-2400.326 476.787)" fill="none" stroke="#666" stroke-miterlimit="10" stroke-width="1"/>
      <path id="Path_151" data-name="Path 151" d="M2416.43-460.17v5.164l-3.077,1.707" transform="translate(-2400.326 466.516)" fill="none" stroke="#666" stroke-miterlimit="10" stroke-width="1"/>
      <line id="Line_108" data-name="Line 108" x1="1.621" y1="1.182" transform="translate(16.104 11.51)" fill="none" stroke="#666" stroke-miterlimit="10" stroke-width="1"/>
    </g>
  </g>
</svg>
