<?xml version="1.0" standalone="no"?>
<!DOCTYPE svg PUBLIC "-//W3C//DTD SVG 20010904//EN"
 "http://www.w3.org/TR/2001/REC-SVG-20010904/DTD/svg10.dtd">
<svg version="1.0" xmlns="http://www.w3.org/2000/svg"
 width="500.000000pt" height="500.000000pt" viewBox="0 0 500.000000 500.000000"
 preserveAspectRatio="xMidYMid meet">

<g transform="translate(0.000000,500.000000) scale(0.100000,-0.100000)"
fill="#000000" stroke="none">
<path d="M3085 3206 c-59 -28 -118 -86 -140 -138 l-15 -38 -839 0 c-833 0
-838 0 -865 -21 -30 -24 -34 -63 -10 -97 l15 -22 848 0 848 0 24 -51 c96 -207
394 -209 495 -4 l26 55 149 0 c141 0 149 1 163 22 24 34 20 73 -10 97 -24 19
-40 21 -168 21 l-142 0 -13 36 c-49 135 -231 204 -366 140z"/>
<path d="M1790 2311 c-89 -29 -147 -80 -182 -158 l-19 -43 -179 0 c-174 0
-179 -1 -194 -22 -24 -34 -20 -73 10 -97 25 -19 40 -21 196 -21 l169 0 15 -35
c22 -53 83 -115 139 -141 136 -64 312 4 369 141 l15 35 809 0 c804 0 809 0
836 21 30 24 34 63 10 97 l-15 22 -819 0 -819 0 -19 43 c-44 98 -130 157 -237
163 -33 2 -71 0 -85 -5z"/>
<path d="M4259 145 c0 -5 -2 -20 -3 -32 -2 -14 3 -23 11 -23 7 0 13 -8 14 -17
0 -15 2 -15 8 2 10 23 4 38 -10 30 -5 -4 -9 -1 -9 4 0 6 9 11 20 11 14 0 18 5
13 16 -5 13 -7 13 -14 2 -7 -11 -11 -10 -19 2 -5 8 -10 11 -11 5z"/>
<path d="M4324 139 c-4 -8 -3 -9 4 -5 21 13 37 -6 18 -19 -15 -11 -15 -13 -1
-19 9 -3 13 -11 10 -17 -4 -6 -13 -8 -21 -5 -8 3 -14 1 -14 -5 0 -6 10 -9 23
-7 19 3 22 9 22 43 0 29 -4 41 -17 43 -9 2 -20 -2 -24 -9z"/>
<path d="M4395 140 c-3 -5 0 -7 8 -4 25 9 28 -12 7 -39 -26 -33 -25 -37 8 -36
16 1 20 3 10 6 -16 4 -16 6 -2 29 9 13 14 31 10 39 -6 17 -32 20 -41 5z"/>
<path d="M4464 136 c-11 -30 0 -71 20 -71 23 0 36 32 25 63 -9 25 -37 30 -45
8z m34 -37 c-1 -13 -7 -23 -13 -22 -13 3 -18 30 -11 50 10 24 29 1 24 -28z"/>
<path d="M4543 143 c20 -5 20 -7 8 -51 -6 -20 -6 -32 0 -32 5 0 9 8 9 18 0 9
7 29 14 45 15 27 15 27 -17 26 -18 -1 -24 -3 -14 -6z"/>
<path d="M4606 138 c-3 -7 -4 -26 -3 -43 2 -23 7 -30 22 -30 17 0 20 7 20 40
0 30 -4 41 -18 43 -9 2 -19 -2 -21 -10z m34 -13 c0 -8 -4 -15 -9 -15 -13 0
-22 16 -14 24 11 11 23 6 23 -9z m-2 -44 c3 -8 -1 -12 -9 -9 -7 2 -15 10 -17
17 -3 8 1 12 9 9 7 -2 15 -10 17 -17z"/>
<path d="M4677 143 c-2 -4 -5 -23 -5 -41 -1 -36 21 -53 41 -33 15 15 54 14 60
-1 10 -24 23 10 19 47 -5 43 -18 45 -40 5 -20 -34 -36 -34 -37 1 0 23 -28 39
-38 22z m33 -18 c0 -8 -4 -15 -9 -15 -13 0 -22 16 -14 24 11 11 23 6 23 -9z
m60 -20 c0 -8 -4 -15 -10 -15 -5 0 -7 7 -4 15 4 8 8 15 10 15 2 0 4 -7 4 -15z
m-62 -24 c3 -8 -1 -12 -9 -9 -7 2 -15 10 -17 17 -3 8 1 12 9 9 7 -2 15 -10 17
-17z"/>
<path d="M4815 140 c-3 -5 0 -7 8 -4 25 9 28 -12 7 -39 -26 -33 -25 -37 8 -36
16 1 20 3 10 6 -16 4 -16 6 -2 29 9 13 14 31 10 39 -6 17 -32 20 -41 5z"/>
<path d="M4885 140 c-3 -5 0 -7 8 -4 25 9 28 -12 7 -39 -27 -34 -25 -37 13
-36 23 1 26 3 10 6 -21 4 -22 6 -7 29 9 13 14 31 10 39 -6 17 -32 20 -41 5z"/>
</g>
</svg>
