<svg xmlns="http://www.w3.org/2000/svg" xmlns:xlink="http://www.w3.org/1999/xlink" width="21.328" height="21.834" viewBox="0 0 21.328 21.834">
  <defs>
    <clipPath id="clip-path">
      <path id="Path_502" data-name="Path 502" d="M90.426,214h7.449v12.959H90.426Zm0,0" transform="translate(-90.426 -214)"/>
    </clipPath>
    <clipPath id="clip-path-2">
      <path id="Path_501" data-name="Path 501" d="M111.506,92.317H101.338v4.215h5.853c-.546,2.678-2.827,4.215-5.853,4.215a6.447,6.447,0,1,1,0-12.894,6.309,6.309,0,0,1,4.018,1.438l3.174-3.174a10.9,10.9,0,1,0-7.192,19.093c5.456,0,10.416-3.967,10.416-10.91A9.049,9.049,0,0,0,111.506,92.317Zm0,0" transform="translate(-90.426 -83.391)"/>
    </clipPath>
    <clipPath id="clip-path-3">
      <path id="Path_505" data-name="Path 505" d="M90.426,83h21.328V93.924H90.426Zm0,0" transform="translate(-90.426 -83)"/>
    </clipPath>
    <clipPath id="clip-path-5">
      <path id="Path_508" data-name="Path 508" d="M90.426,83h21.328v21.834H90.426Zm0,0" transform="translate(-90.426 -83)"/>
    </clipPath>
    <clipPath id="clip-path-7">
      <path id="Path_511" data-name="Path 511" d="M251,214h15.881v17.39H251Zm0,0" transform="translate(-251 -214)"/>
    </clipPath>
  </defs>
  <g id="Group_409" data-name="Group 409" transform="translate(-4230.534 -1536.501)">
    <g id="Group_407" data-name="Group 407" transform="translate(-61.607 34.402)">
      <g id="surface1" transform="translate(4292.142 1502.099)">
        <g id="Group_390" data-name="Group 390" transform="translate(0 4.444)" clip-path="url(#clip-path)">
          <g id="Group_389" data-name="Group 389" transform="translate(0 -4.431)" clip-path="url(#clip-path-2)">
            <path id="Path_500" data-name="Path 500" d="M61.184,227.851V214.957l8.432,6.447Zm0,0" transform="translate(-62.176 -210.494)" fill="#9a9a9a"/>
          </g>
        </g>
        <g id="Group_392" data-name="Group 392" transform="translate(0 0)" clip-path="url(#clip-path-3)">
          <g id="Group_391" data-name="Group 391" transform="translate(0 0.013)" clip-path="url(#clip-path-2)">
            <path id="Path_503" data-name="Path 503" d="M61.184,59.611l8.432,6.447,3.472-3.025,11.9-1.934V54.156H61.184Zm0,0" transform="translate(-62.176 -55.148)" fill="#707070"/>
          </g>
        </g>
        <g id="Group_394" data-name="Group 394" transform="translate(0 0)" clip-path="url(#clip-path-5)">
          <g id="Group_393" data-name="Group 393" transform="translate(0 0.013)" clip-path="url(#clip-path-2)">
            <path id="Path_506" data-name="Path 506" d="M61.184,72.506,76.064,61.1l3.918.5,5.01-7.439v23.8H61.184Zm0,0" transform="translate(-62.176 -55.148)" fill="#707070"/>
          </g>
        </g>
        <g id="Group_396" data-name="Group 396" transform="translate(5.447 4.444)" clip-path="url(#clip-path-7)">
          <g id="Group_395" data-name="Group 395" transform="translate(-5.447 -4.431)" clip-path="url(#clip-path-2)">
            <path id="Path_509" data-name="Path 509" d="M268.614,233.306l-15.376-11.9-1.984-1.488,17.36-4.959Zm0,0" transform="translate(-245.798 -210.494)" fill="#707070"/>
          </g>
        </g>
      </g>
    </g>
  </g>
</svg>
