<svg id="surface1" xmlns="http://www.w3.org/2000/svg" width="21.496" height="21.495" viewBox="0 0 21.496 21.495">
  <path id="Path_512" data-name="Path 512" d="M86.971,81A5.972,5.972,0,0,0,81,86.971v9.553a5.972,5.972,0,0,0,5.971,5.971h9.554a5.972,5.972,0,0,0,5.971-5.971V86.971A5.972,5.972,0,0,0,96.524,81Zm11.942,2.388a1.194,1.194,0,1,1-1.194,1.194A1.195,1.195,0,0,1,98.913,83.388Zm-7.165,2.388a5.971,5.971,0,1,1-5.971,5.971A5.972,5.972,0,0,1,91.748,85.777Zm0,2.388q-.088,0-.176,0t-.175.013q-.087.009-.175.022t-.173.03q-.086.017-.172.039t-.169.047q-.084.025-.167.055c-.055.02-.11.041-.164.063s-.108.046-.161.071-.105.051-.157.079-.1.056-.153.087-.1.061-.148.094-.1.066-.144.1-.093.071-.139.108-.09.075-.133.115-.086.08-.127.121-.082.084-.121.127-.078.088-.115.133-.073.092-.108.139-.069.095-.1.144-.064.1-.094.148-.059.1-.087.153-.054.1-.079.157-.049.107-.071.161-.044.109-.063.164-.038.111-.055.167-.033.113-.047.169-.027.114-.039.172-.021.115-.03.173-.016.116-.022.175-.01.117-.013.175,0,.117,0,.176,0,.117,0,.176.007.117.013.175.013.116.022.175.019.116.03.173.024.115.039.172.03.113.047.169.035.112.055.167.041.11.063.164.046.108.071.161.051.105.079.157.057.1.087.153.062.1.094.148.066.1.1.144.071.093.108.139.075.09.115.133.08.086.121.127.084.082.127.121.088.078.133.115.092.073.139.108.095.069.144.1.1.064.148.094.1.059.153.087.1.054.157.079.107.049.161.071.109.044.164.063.111.038.167.055.113.033.169.047.114.027.172.039.115.021.173.03.116.016.175.022.117.01.175.013.117,0,.176,0,.117,0,.176,0,.117-.007.175-.013.116-.013.175-.022.116-.019.173-.03.115-.024.172-.039.113-.03.169-.047.112-.035.167-.055.11-.041.164-.063.108-.046.161-.071.105-.051.157-.079.1-.057.153-.087.1-.061.148-.094.1-.066.144-.1.093-.071.139-.108.09-.075.133-.115.086-.08.127-.121.082-.084.121-.127.078-.088.115-.133.073-.092.108-.139.069-.095.1-.144.064-.1.094-.148.059-.1.087-.153.054-.1.079-.157.049-.107.071-.161.044-.109.063-.164.038-.111.055-.167.033-.113.047-.169.027-.114.039-.172.021-.115.03-.173.016-.116.022-.175.01-.117.013-.175,0-.117,0-.176,0-.117,0-.176-.007-.117-.013-.175-.013-.116-.022-.175-.019-.116-.03-.173-.024-.115-.039-.172-.03-.113-.047-.169-.035-.112-.055-.167-.041-.11-.063-.164-.046-.108-.071-.161-.051-.105-.079-.157-.056-.1-.087-.153-.061-.1-.094-.148-.066-.1-.1-.144-.071-.093-.108-.139-.075-.09-.115-.133-.08-.086-.121-.127-.084-.082-.127-.121-.088-.078-.133-.115-.092-.073-.139-.108-.095-.069-.144-.1-.1-.064-.148-.094-.1-.059-.153-.087-.1-.054-.157-.079-.107-.049-.161-.071-.109-.044-.164-.063-.111-.038-.167-.055-.113-.033-.169-.047-.114-.027-.172-.039-.115-.021-.173-.03-.116-.016-.175-.022-.117-.01-.175-.013S91.806,88.165,91.748,88.165Zm0,0" transform="translate(-81 -81)" fill="#707070"/>
</svg>
