<svg xmlns="http://www.w3.org/2000/svg" width="19.662" height="21.333" viewBox="0 0 19.662 21.333">
  <g id="Secure_wifi" data-name="Secure wifi" transform="translate(-30.99 -22.56)">
    <path id="Path_125" data-name="Path 125" d="M45.5,25.159a5.137,5.137,0,0,1-4.25-1.854.567.567,0,0,0-.471-.246h0a.57.57,0,0,0-.473.249,5.053,5.053,0,0,1-4.2,1.851,4.924,4.924,0,0,1-4.3-2.017.161.161,0,0,0-.139-.082h-.022a.16.16,0,0,0-.161.161V30.6a10.393,10.393,0,0,0,3.537,7.812l5.511,4.836a.429.429,0,0,0,.566,0l5.511-4.836A10.394,10.394,0,0,0,50.152,30.6V23.221a.16.16,0,0,0-.161-.161h0a.161.161,0,0,0-.139.082A5,5,0,0,1,45.5,25.159Z" transform="translate(0)" fill="none" stroke="#3d5a80" stroke-linecap="round" stroke-miterlimit="10" stroke-width="1"/>
    <line id="Line_68" data-name="Line 68" x2="0.193" transform="translate(40.581 32.053)" fill="none" stroke="#3d5a80" stroke-linecap="round" stroke-miterlimit="10" stroke-width="1"/>
    <path id="Path_126" data-name="Path 126" d="M110.542,107.925a1.451,1.451,0,0,1-.308-.457,1.419,1.419,0,0,1-.113-.56,1.434,1.434,0,0,1,.422-1.017" transform="translate(-71.026 -74.82)" fill="none" stroke="#3d5a80" stroke-linecap="round" stroke-miterlimit="10" stroke-width="1"/>
    <path id="Path_127" data-name="Path 127" d="M94.309,98.9a2.966,2.966,0,0,1,0-4.2" transform="translate(-55.959 -64.712)" fill="none" stroke="#3d5a80" stroke-linecap="round" stroke-miterlimit="10" stroke-width="1"/>
    <path id="Path_128" data-name="Path 128" d="M77.074,91.383a4.24,4.24,0,0,1,0-6" transform="translate(-40.052 -56.294)" fill="none" stroke="#3d5a80" stroke-linecap="round" stroke-miterlimit="10" stroke-width="1"/>
    <path id="Path_129" data-name="Path 129" d="M138.83,107.925a1.439,1.439,0,0,0,.308-1.577,1.435,1.435,0,0,0-.308-.457" transform="translate(-96.96 -74.82)" fill="none" stroke="#3d5a80" stroke-linecap="round" stroke-miterlimit="10" stroke-width="1"/>
    <path id="Path_130" data-name="Path 130" d="M150.88,98.9a2.967,2.967,0,0,0,0-4.2" transform="translate(-107.845 -64.712)" fill="none" stroke="#3d5a80" stroke-linecap="round" stroke-miterlimit="10" stroke-width="1"/>
    <path id="Path_131" data-name="Path 131" d="M164.62,91.383a4.24,4.24,0,0,0,0-6" transform="translate(-120.256 -56.294)" fill="none" stroke="#3d5a80" stroke-linecap="round" stroke-miterlimit="10" stroke-width="1"/>
  </g>
</svg>
