<svg id="surface1" xmlns="http://www.w3.org/2000/svg" xmlns:xlink="http://www.w3.org/1999/xlink" width="21.496" height="21.495" viewBox="0 0 21.496 21.495">
  <defs>
    <clipPath id="clip-path">
      <path id="Path_519" data-name="Path 519" d="M81,81h21.5v21.5H81Zm0,0" transform="translate(-81 -81)"/>
    </clipPath>
  </defs>
  <g id="Group_399" data-name="Group 399" transform="translate(0)" clip-path="url(#clip-path)">
    <path id="Path_518" data-name="Path 518" d="M91.781,81.039a10.722,10.722,0,0,1,7.988,3.579s0,0,0,0a10.719,10.719,0,0,1,2.67,5.932v.01l0,.016,0,.016,0,.016,0,.011c0,.039.009.079.012.118v.012l0,.016,0,.016,0,.016,0,.016,0,.016,0,.016v.013l.005.068,0,.019,0,.015v.012l0,.016,0,.016v.016l0,.016,0,.016v.016l0,.016V91.1c0,.017,0,.034,0,.051l0,.018v.017l0,.017v.017l0,.017v.017l0,.022v.016l0,.016v.015c0,.011,0,.022,0,.034v.017l0,.017v.035l0,.017v.035l0,.017v.037l0,.016v.085l0,.017v.278l0,.017v.07l0,.016v.052l0,.017v.035l0,.017v.038l0,.016v.015c0,.011,0,.022,0,.034v.018l0,.017v.017l0,.017v.017l0,.017v.023l0,.016v.016l0,.015c0,.017,0,.033,0,.05v.018l0,.017v.017l0,.01,0,.016v.016l0,.016,0,.016v.016l0,.016,0,.014-.005.068v.013l0,.016,0,.016,0,.016,0,.016,0,.016,0,.016v.012c0,.039-.009.079-.012.118l0,.011,0,.016,0,.016,0,.016v.01a10.719,10.719,0,0,1-2.67,5.932s0,0,0,0a10.743,10.743,0,0,1-16.011,0s0,0,0,0a10.719,10.719,0,0,1-2.67-5.932v-.01l0-.016,0-.016,0-.016,0-.011c0-.039-.009-.079-.012-.118v-.012l0-.016,0-.016,0-.016,0-.016,0-.016v-.016l0-.013-.005-.068,0-.019,0-.015V92.6l0-.016,0-.016v-.016l0-.016,0-.016v-.016l0-.016v-.015a.5.5,0,0,1,0-.05l0-.018v-.017l0-.017v-.017l0-.017v-.017l0-.022v-.016l0-.016v-.015c0-.011,0-.022,0-.034V92.2l0-.017V92.15l0-.017V92.1l0-.017v-.053l0-.016v-.086l0-.017v-.243l0-.017v-.087l0-.016v-.052l0-.017v-.035l0-.017v-.038l0-.016v-.015c0-.011,0-.022,0-.034V91.3l0-.017v-.017l0-.017v-.017l0-.017v-.023l0-.016v-.016l0-.015c0-.017,0-.033,0-.051V91.08l0-.017v-.017l0-.01,0-.016V91l0-.016,0-.016v-.016l0-.016,0-.014.005-.068,0-.013V90.83l0-.016,0-.016,0-.016,0-.016,0-.016v-.012c0-.039.009-.079.012-.118l0-.011,0-.016,0-.016,0-.016v-.01a10.719,10.719,0,0,1,2.67-5.932s0,0,0,0a10.725,10.725,0,0,1,7.988-3.579Zm.329,16.3v4.478a3.832,3.832,0,0,0,2.437-1.831,10,10,0,0,0,1.12-2.265A19.175,19.175,0,0,0,92.11,97.337Zm-.693,0a19.175,19.175,0,0,0-3.557.383,10,10,0,0,0,1.12,2.265,3.832,3.832,0,0,0,2.437,1.831Zm-4.235.538a12.935,12.935,0,0,0-2.605.94,10.046,10.046,0,0,0,4.869,2.757,6.409,6.409,0,0,1-1.04-1.2A10.82,10.82,0,0,1,87.182,97.875Zm9.163,0a10.819,10.819,0,0,1-1.224,2.5,6.409,6.409,0,0,1-1.04,1.2,10.044,10.044,0,0,0,4.869-2.757A12.935,12.935,0,0,0,96.345,97.875ZM86.22,92.134H81.714l0,.012v.031l0,.015v.03l0,.015v.015l0,.015v.022l0,.015v.016l0,.014v.015l0,.015v.015l0,.015v.023l0,.015v.015l0,.015v.015l0,.015,0,.015v.015l0,.015,0,.015v.008l0,.015v.014l0,.015,0,.015v.015l0,.015,0,.015,0,.015V92.7l0,.013,0,.011v.014l0,.015,0,.015,0,.015,0,.015,0,.015v.014l0,.013,0,.012s0,.01,0,.014l0,.014,0,.015,0,.015,0,.015v.014l0,.014,0,.013c0,.017.005.035.007.053l0,.017,0,.015,0,.014,0,.014,0,.013c0,.023.007.045.009.068l0,.016,0,.014,0,.014,0,.013c0,.027.009.055.012.083l0,.015,0,.014a10.038,10.038,0,0,0,2.267,4.96,13.405,13.405,0,0,1,2.874-1.068A18.967,18.967,0,0,1,86.22,92.134Zm15.589.056,0-.014v-.031l0-.012H97.307a18.968,18.968,0,0,1-.747,5.082,13.405,13.405,0,0,1,2.874,1.068,10.023,10.023,0,0,0,2.267-4.96l0-.015,0-.014c.005-.028.009-.055.012-.083l0-.015,0-.015,0-.014,0-.014c0-.023.005-.045.009-.068l0-.016,0-.015,0-.015,0-.014,0-.013c0-.018.005-.035.007-.053l0-.017,0-.015,0-.015,0-.015,0-.014v-.013l0-.012s0-.009,0-.014l0-.014,0-.03,0-.015v-.015l0-.015,0-.014,0-.01v-.014l0-.014,0-.015,0-.015V92.66l0-.015,0-.015v-.009l0-.015,0-.015v-.014l0-.015,0-.015v-.015l0-.015,0-.015v-.008l0-.015v-.015l0-.015v-.015l0-.015V92.4l0-.015v-.023l0-.015v-.015l0-.015v-.015l0-.015v-.015l0-.016v-.031l0-.007ZM91.417,96.643v-4.51h-4.5a18.22,18.22,0,0,0,.728,4.925A19.832,19.832,0,0,1,91.417,96.643Zm5.2-4.51h-4.5v4.51a19.832,19.832,0,0,1,3.776.415A18.223,18.223,0,0,0,96.614,92.134ZM101.7,90.25a10.023,10.023,0,0,0-2.267-4.96,13.406,13.406,0,0,1-2.874,1.068,18.968,18.968,0,0,1,.747,5.082h4.505l0-.012V91.4l0-.015v-.03l0-.015v-.015l0-.015v-.022l0-.015v-.016l0-.014v-.015l0-.015v-.015l0-.015v-.023l0-.015v-.015l0-.015V91.1l0-.015,0-.015V91.05l0-.015,0-.015v-.008l0-.015v-.014l0-.015,0-.015v-.015l0-.015,0-.015,0-.015v-.015l0-.013,0-.011V90.84l0-.015,0-.015,0-.015,0-.015,0-.015v-.014l0-.013,0-.012s0-.01,0-.014l0-.014,0-.015,0-.015,0-.015V90.64l0-.014,0-.013c0-.017-.005-.035-.007-.053l0-.017,0-.015,0-.014,0-.014,0-.013c0-.023-.005-.045-.009-.068l0-.016,0-.014,0-.014,0-.013c0-.028-.007-.055-.012-.083l0-.015Zm-5.816-3.735a19.832,19.832,0,0,1-3.776.415v4.51h4.5A18.22,18.22,0,0,0,95.886,86.515Zm-8.919-.157a13.406,13.406,0,0,1-2.874-1.068,10.038,10.038,0,0,0-2.267,4.96l0,.015,0,.014c0,.028-.009.055-.012.083l0,.015,0,.015,0,.014,0,.014c0,.023-.005.045-.009.068l0,.016,0,.015,0,.015,0,.014,0,.013c0,.018-.005.035-.007.053l0,.017,0,.015,0,.015,0,.015,0,.014V90.7l0,.012s0,.009,0,.014l0,.014,0,.03,0,.015V90.8l0,.015,0,.014,0,.01v.014l0,.014,0,.015,0,.015v.015l0,.015,0,.015v.009l0,.015,0,.015V91l0,.015,0,.015v.015l0,.015,0,.015v.008l0,.015v.015l0,.015v.015l0,.015v.015l0,.015v.023l0,.015v.015l0,.015v.015l0,.015V91.3l0,.015v.031l0,.007v.031l0,.014v.031l0,.012H86.22A18.968,18.968,0,0,1,86.967,86.358Zm.674.157a18.223,18.223,0,0,0-.728,4.925h4.5V86.93A19.832,19.832,0,0,1,87.641,86.515Zm4.469-4.757v4.478a19.175,19.175,0,0,0,3.557-.383,10,10,0,0,0-1.12-2.265A3.832,3.832,0,0,0,92.11,81.758Zm-.693,0a3.832,3.832,0,0,0-2.437,1.831,10,10,0,0,0-1.12,2.265,19.175,19.175,0,0,0,3.557.383ZM89.446,82a10.043,10.043,0,0,0-4.869,2.757,12.934,12.934,0,0,0,2.605.94,10.82,10.82,0,0,1,1.224-2.5A6.405,6.405,0,0,1,89.446,82Zm4.635,0a6.405,6.405,0,0,1,1.04,1.2,10.819,10.819,0,0,1,1.224,2.5,12.934,12.934,0,0,0,2.605-.94A10.046,10.046,0,0,0,94.081,82Zm0,0" transform="translate(-81.015 -81.038)" fill="#707070" fill-rule="evenodd"/>
  </g>
</svg>
